<?xml version="1.0" standalone="no"?><!DOCTYPE svg PUBLIC "-//W3C//DTD SVG 1.1//EN" "http://www.w3.org/Graphics/SVG/1.1/DTD/svg11.dtd"><svg t="1755229154713" class="icon" viewBox="0 0 1203 1024" version="1.1" xmlns="http://www.w3.org/2000/svg" p-id="9767" xmlns:xlink="http://www.w3.org/1999/xlink" width="300.75" height="256"><path d="M368.767134 549.823916a58.779445 58.779445 0 1 1-28.240404 75.855039 57.137561 57.137561 0 0 1 28.240404-75.855039z m408.829103-32.837679a58.779445 58.779445 0 1 1-28.240404 75.855039 57.137561 57.137561 0 0 1 28.240404-75.855039z m291.926966-35.464693h-7.881043v-22.329622a470.892316 470.892316 0 0 0-14.448579-82.422574l27.58365-5.910782S971.338543-32.388131 553.643267 2.091432C183.891002 32.630473 99.16979 330.468221 88.661733 448.027112l26.926897 2.955391a476.146344 476.146344 0 0 0 0 85.049588c0 7.552666 0 14.776956 2.298637 22.001245h-4.597275a122.484542 122.484542 0 1 0 62.063213 232.819144c70.60101 149.411439 252.193374 247.267722 455.458607 229.863752s367.453627-142.843903 412.769624-302.435023a122.484542 122.484542 0 1 0 26.59852-238.729926z m69.287502 131.350716a57.794315 57.794315 0 0 1-54.510547 47.286257 206.220624 206.220624 0 0 1-85.049588-7.881042c-56.809185 172.069438-197.026074 281.747285-394.052147 292.255342a386.827858 386.827858 0 0 1-388.798119-226.908361 159.59112 159.59112 0 0 1-77.496922 21.344491 65.675358 65.675358 0 0 1-69.944256-49.584895 67.645619 67.645619 0 0 1 47.943011-75.526662 553.971644 553.971644 0 0 1 65.675358-16.747216 771.028701 771.028701 0 0 1 0-98.513037q1.970261-22.001245 5.254028-43.674113a1047.850335 1047.850335 0 0 0 115.917007-2.627014l63.37672-124.454803 78.153676 126.425064a4386.457151 4386.457151 0 0 0 533.283906-63.705098q7.552666 24.628259 12.806695 49.584896a412.112871 412.112871 0 0 1 10.836434 88.661733 268.612214 268.612214 0 0 1 98.513037 11.164811 61.734836 61.734836 0 0 1 38.091707 72.899647z m0 0" fill="#FFDC00" p-id="9768"></path></svg>