<svg width="877" height="1060" viewBox="0 0 877 1060" fill="none" xmlns="http://www.w3.org/2000/svg">
<path fill-rule="evenodd" clip-rule="evenodd" d="M439.748 0.716003L434.504 1.105V3.96899C434.504 5.54399 434.944 6.98301 435.481 7.16701C436.019 7.35001 440.626 7.275 445.72 7L454.981 6.5V3.5V0.5L449.987 0.412994C447.24 0.365994 442.633 0.502003 439.748 0.716003ZM470.463 2.869V5.73801L474.209 6.358C476.27 6.699 480.989 6.983 484.697 6.989L491.439 7V3.5V0H480.951H470.463V2.869ZM507.271 2.95C507.189 4.078 507.077 5.563 507.022 6.25C506.953 7.107 510.064 7.84799 516.91 8.60699C522.404 9.21599 527.007 9.633 527.139 9.534C527.27 9.435 527.656 7.959 527.997 6.255L528.616 3.155L524.261 2.619C521.867 2.324 517.098 1.817 513.664 1.492L507.421 0.901001L507.271 2.95ZM403.605 4.13499C400.619 4.63099 397.98 5.233 397.741 5.472C397.503 5.711 397.608 7.109 397.976 8.578L398.645 11.249L405.837 10.58C409.793 10.213 414.489 9.657 416.275 9.345L419.522 8.77699V5.88901V3L414.277 3.117C411.394 3.181 406.59 3.63899 403.605 4.13499ZM543.085 7.694C542.783 9.237 542.838 10.795 543.207 11.155C543.577 11.515 548.068 12.393 553.186 13.106L562.492 14.401L563.409 12.951C563.913 12.153 564.332 10.757 564.341 9.85001L564.356 8.19901L559.612 7.155C557.003 6.58 552.34 5.83499 549.251 5.49899L543.635 4.888L543.085 7.694ZM369.662 10.085C365.588 11.138 362.082 12.171 361.872 12.382C360.864 13.391 362.981 17.997 364.442 17.976C366.81 17.942 382.478 14.419 383.119 13.777C383.417 13.48 383.365 12.058 383.003 10.618L382.347 8L379.709 8.086C378.258 8.133 373.737 9.03301 369.662 10.085ZM579.038 13.727C578.739 15.252 578.797 16.775 579.166 17.112C580.546 18.366 597.655 22.063 598.441 21.276C598.891 20.826 599.384 19.383 599.537 18.069L599.816 15.68L593.089 13.955C589.391 13.005 584.838 11.942 582.972 11.592L579.581 10.955L579.038 13.727ZM335.617 19.359C332.046 20.547 328.623 21.842 328.01 22.236C326.178 23.413 327.591 28 329.786 28C332.259 28 347.423 23.102 348.039 22.104C348.296 21.688 348.251 20.369 347.938 19.174L347.371 17L344.74 17.1C343.293 17.155 339.188 18.171 335.617 19.359ZM614.237 22.663C613.681 24.127 613.58 25.638 614.013 26.019C614.762 26.679 631.386 32 632.699 32C633.472 32 635.486 26.877 634.932 26.322C634.357 25.747 617.324 20 616.194 20C615.675 20 614.794 21.198 614.237 22.663ZM302.225 31.547C292.531 35.724 292.128 36.098 293.825 39.318L295.163 41.857L303.654 38.347C308.323 36.416 312.559 34.435 313.066 33.945C314.07 32.975 312.234 27.953 310.916 28.066C310.493 28.103 306.581 29.669 302.225 31.547ZM648.813 34.645C648.448 36.099 648.512 37.616 648.955 38.015C649.397 38.414 653.475 40.327 658.015 42.267L666.271 45.793L667.754 43.674C668.569 42.509 669.237 41.093 669.236 40.527C669.236 39.657 652.005 31.964 650.116 31.991C649.765 31.996 649.177 33.19 648.813 34.645ZM268.694 47.096C264.573 49.333 260.824 51.528 260.36 51.975C259.897 52.421 260.259 53.919 261.165 55.303L262.813 57.821L271.746 53.256C276.659 50.745 280.68 48.28 280.68 47.779C280.68 46.021 278.599 43 277.399 43.014C276.731 43.022 272.814 44.858 268.694 47.096ZM682.18 49.078C681.569 50.221 681.287 51.724 681.553 52.419C682.033 53.671 697.151 62 698.945 62C699.459 62 700.377 60.91 700.983 59.578L702.085 57.156L699.414 55.403C695.935 53.121 684.61 47 683.867 47C683.55 47 682.791 47.935 682.18 49.078ZM238.351 63.947C234.573 66.071 230.668 68.64 229.672 69.655L227.862 71.5L229.708 73.748L231.554 75.997L240.135 70.94C244.855 68.159 248.702 65.347 248.684 64.692C248.652 63.484 246.325 59.965 245.61 60.042C245.395 60.066 242.129 61.823 238.351 63.947ZM713.221 67.934C712.653 68.998 712.188 70.125 712.188 70.438C712.188 70.752 715.868 73.74 720.367 77.08L728.546 83.151L730.292 80.834L732.038 78.517L730.39 76.694C728.125 74.189 716.563 66 715.29 66C714.721 66 713.791 66.87 713.221 67.934ZM207.763 85.093C204.192 87.872 200.626 90.774 199.839 91.542L198.408 92.938L200.244 94.969C202.589 97.563 202.81 97.54 206.972 94.25C212.121 90.179 216.844 86.588 218.038 85.835C219.129 85.147 216.414 79.981 214.982 80.02C214.582 80.031 211.334 82.314 207.763 85.093ZM742.353 90.2C740.182 92.374 741.314 94.424 748.293 100.946L755.191 107.393L757.385 105.196L759.579 102.999L752.641 96C745.481 88.776 744.39 88.161 742.353 90.2ZM177.983 109.048C174.035 112.375 170.805 115.455 170.805 115.893C170.805 116.332 171.693 117.495 172.779 118.478L174.753 120.266L181.791 114.501C185.662 111.331 189.065 108.355 189.353 107.889C190.114 106.655 187.935 103 186.437 103C185.735 103 181.931 105.722 177.983 109.048ZM767.689 116.928C765.658 119.175 765.772 119.427 772.619 127.788C777.637 133.915 779.689 135.022 781.908 132.8C783.558 131.148 783.411 129.715 781.359 127.439C780.398 126.372 777.659 123.137 775.273 120.25C772.886 117.363 770.596 115 770.183 115C769.77 115 768.648 115.868 767.689 116.928ZM150.486 133.924L143.39 140.849L145.266 142.924C146.298 144.066 147.544 145 148.034 145C148.526 145 152.138 141.868 156.061 138.039L163.195 131.079L161.352 129.039C160.338 127.918 159.075 127 158.546 127C158.017 127 154.39 130.116 150.486 133.924ZM790.327 145.171C789.652 145.847 789.1 146.832 789.1 147.361C789.1 148.466 799.859 163 800.677 163C802.127 163 805.08 160.788 805.062 159.715C805.03 157.823 794.745 144.557 793.059 144.232C792.232 144.072 791.003 144.495 790.327 145.171ZM130.193 156.273C128.632 158.058 125.811 161.934 123.923 164.887L120.491 170.255L122.405 171.656C123.458 172.427 124.85 172.932 125.498 172.779C127.213 172.373 137.97 157.014 137.299 155.929C136.988 155.424 135.9 154.565 134.882 154.019L133.031 153.028L130.193 156.273ZM810.746 175.45L808.92 176.836L814.079 185.418C816.917 190.138 819.762 193.986 820.4 193.968C821.039 193.951 822.37 193.324 823.356 192.575L825.149 191.214L820.071 182.607C817.278 177.873 814.449 174.014 813.783 174.032C813.117 174.049 811.751 174.687 810.746 175.45ZM111.177 185.25C109.629 187.31 102.883 200.719 102.883 201.736C102.883 202.255 103.952 203.166 105.257 203.762L107.632 204.845L108.753 203.723C109.37 203.105 109.875 202.203 109.875 201.718C109.875 201.233 111.448 198.149 113.371 194.865C117.38 188.016 117.625 186.477 114.935 185.035C112.492 183.726 112.315 183.736 111.177 185.25ZM828.176 207.354L827.054 208.708L831.527 217.843L836.001 226.978L838.522 225.828C839.907 225.196 841.041 224.066 841.041 223.317C841.041 222.568 839.238 218.366 837.034 213.978L833.028 206H831.163C830.138 206 828.794 206.609 828.176 207.354ZM90.9444 224.519C88.7199 229.205 86.901 233.696 86.901 234.5C86.901 235.797 91.4957 237.811 92.3068 236.87C92.4826 236.667 94.4534 232.566 96.6868 227.758L100.747 219.017L98.5966 217.508C97.413 216.679 96.1175 216 95.7159 216C95.3154 216 93.1678 219.834 90.9444 224.519ZM843.689 239.708L841.842 240.185L842.339 242.342C842.612 243.529 844.079 248.01 845.599 252.3L848.362 260.101L850.944 259.8L853.526 259.5L853.384 256.3C853.199 252.109 848.03 238.967 846.626 239.116C846.026 239.18 844.704 239.446 843.689 239.708ZM78.13 254.25C77.1011 256.587 75.4231 260.695 74.4032 263.378L72.5474 268.257L74.4212 269.628C75.452 270.383 76.8075 271 77.4338 271C78.0601 271 80.2825 266.676 82.3711 261.392L86.1698 251.784L84.7874 250.907C81.8847 249.067 79.9958 250.016 78.13 254.25ZM854.315 274.799L853.108 275.568L855.198 284.034C856.349 288.69 857.441 293.063 857.625 293.75C858.028 295.259 862.637 295.423 863.54 293.96C863.893 293.388 863.156 288.663 861.904 283.46L859.625 274L857.575 274.015C856.447 274.024 854.981 274.377 854.315 274.799ZM65.0089 292.874C62.5118 303.523 62.4688 304.609 64.5085 305.393C67.4202 306.512 68.8795 306.017 69.352 303.75C69.6107 302.512 70.6076 297.982 71.5675 293.682L73.3145 285.864L71.8671 284.947C71.071 284.443 69.6706 284.024 68.7547 284.015L67.0906 284L65.0089 292.874ZM863.303 309.701L861.094 310.129L861.597 312.815C861.874 314.292 862.643 318.875 863.307 323L864.514 330.5L866.876 330.835C870.804 331.391 871.168 329.951 869.584 320.146C868.09 310.895 867.472 308.886 866.203 309.136C865.823 309.211 864.519 309.465 863.303 309.701ZM60.549 320.809C60.2743 321.254 59.734 326.204 59.3484 331.809L58.6472 342H61.7676H64.8881L65.3446 339.75C65.5963 338.512 66.0208 333.989 66.2895 329.697L66.7779 321.895L64.2888 320.947C61.2682 319.798 61.1753 319.794 60.549 320.809ZM867.018 349.75C867.022 351.813 867.314 356.561 867.667 360.302L868.309 367.104L871.405 366.802L874.502 366.5L874.354 363C874.272 361.075 873.899 356.462 873.526 352.75L872.845 346H869.928H867.011L867.018 349.75ZM57.934 367.5V378.127L61.1803 377.813L64.4266 377.5V367.5V357.5L61.1803 357.187L57.934 356.873V367.5ZM870.008 392.5V403H872.879H875.751L876.359 399.957C876.693 398.283 876.684 393.558 876.337 389.457L875.708 382H872.857H870.008V392.5ZM59.2056 393.636L57.98 394.151L58.5034 400.326C58.791 403.722 59.2575 408.413 59.5402 410.75L60.0546 415H62.9893H65.9249L65.867 408.25C65.836 404.538 65.4924 399.7 65.1048 397.5L64.3996 393.5L62.4159 393.31C61.3241 393.206 59.8798 393.353 59.2056 393.636ZM870.872 418.749L869.238 419.102L868.534 428.502C868.148 433.671 868.123 438.373 868.478 438.95C868.835 439.528 870.188 440 871.486 440H873.844L874.364 437.25C874.649 435.737 875.167 431.074 875.514 426.886L876.146 419.271L874.326 418.834C873.324 418.593 871.77 418.555 870.872 418.749ZM61.9295 430.321C61.9295 430.497 62.8284 434.853 63.9272 440C65.0259 445.147 65.9249 449.728 65.9249 450.179C65.9249 451.28 69.0633 451.196 70.8782 450.046L72.3356 449.124L70.4577 439.562L68.5799 430H65.2547C63.4257 430 61.9295 430.144 61.9295 430.321ZM865.569 456.159C865.279 457.447 864.431 462.191 863.684 466.703L862.327 474.905L863.752 475.453C864.536 475.754 865.98 476 866.963 476H868.749L869.829 470.25C870.422 467.087 871.206 462.362 871.57 459.75L872.232 455H870.702C869.861 455 868.48 454.734 867.634 454.409C866.582 454.005 865.929 454.559 865.569 456.159ZM67.9226 468.853C67.9226 470.973 67.6409 475.409 67.2953 478.713L66.6681 484.719L69.4479 485.418C73.3354 486.394 73.8828 485.021 73.9008 474.25L73.9158 465H70.9192H67.9226V468.853ZM857.265 498.703C854.42 509.839 854.444 510.637 857.64 511.44C859.078 511.802 860.423 511.928 860.63 511.721C861.301 511.049 865.367 492.02 864.931 491.585C864.7 491.353 863.385 490.88 862.012 490.535L859.513 489.907L857.265 498.703ZM60.6439 507.602L57.0071 516.332L58.7191 517.634C61.6937 519.897 62.9753 519.145 65.3386 513.75C68.0904 507.468 70.255 501.001 69.7685 500.514C69.5747 500.321 68.2612 499.872 66.8488 499.517L64.2798 498.872L60.6439 507.602ZM847.707 533.781C844.401 544.809 844.396 545.644 847.634 546.264L850.232 546.761L851.543 543.62C853.374 539.233 856.518 527.161 855.972 526.615C855.723 526.366 854.363 525.872 852.949 525.517L850.378 524.871L847.707 533.781ZM44.2506 532.723C42.0911 535.351 39.2823 539.003 38.0097 540.84L35.6954 544.18L37.8969 546.34L40.0984 548.5L43.083 545C48.6286 538.498 52.7369 532.288 52.0877 531.392C51.7321 530.901 50.7063 529.926 49.8083 529.223L48.1762 527.947L44.2506 532.723ZM19.6167 564.362C16.5183 568.411 13.9842 572.352 13.9842 573.121C13.9842 574.407 17.7948 577.55 18.469 576.819C18.6309 576.644 21.5006 572.9 24.8458 568.5L30.9278 560.5L28.8382 558.75C27.6885 557.788 26.411 557 25.9984 557C25.5859 557 22.7142 560.313 19.6167 564.362ZM837.17 564.25C836.179 566.587 834.539 570.695 833.525 573.378L831.681 578.257L833.555 579.628C834.586 580.383 835.97 581 836.632 581C837.293 581 839.471 576.904 841.473 571.898L845.112 562.796L843.953 561.398C841.701 558.682 839.06 559.793 837.17 564.25ZM2.12069 591.935C0.95402 594.65 0.0100992 597.912 0.0220856 599.185C0.0460582 601.676 2.87683 608.323 5.21416 611.377L6.65052 613.253L8.81905 612.091C11.5469 610.63 11.5369 609.529 8.74813 604.257L6.50369 600.014L8.23771 595.257L9.97273 590.5L7.87212 588.75C6.71744 587.788 5.42792 587 5.0064 587C4.58588 587 3.28736 589.221 2.12069 591.935ZM819.815 601.391C817.206 605.999 815.07 610.199 815.07 610.724C815.07 611.249 816.188 612.189 817.554 612.812L820.039 613.945L823.647 608.297C825.632 605.19 827.99 601.11 828.884 599.229L830.514 595.81L828.594 594.405C827.538 593.632 826.199 593.003 825.617 593.007C825.035 593.01 822.424 596.783 819.815 601.391ZM21.2169 621.986C20.5347 623.079 19.9773 624.41 19.9773 624.943C19.9773 626.103 33.2542 637 34.6666 637C35.2069 637 36.3956 636.174 37.3075 635.165L38.9657 633.331L35.2149 629.903C30.1497 625.273 23.6381 620 22.9869 620C22.6942 620 21.8981 620.894 21.2169 621.986ZM799.789 632.267L793.996 640.5L796.154 642.25C797.34 643.212 798.669 644 799.105 644C799.543 644 802.498 640.173 805.671 635.495L811.442 626.989L809.511 625.527C808.448 624.722 807.129 624.057 806.58 624.049C806.031 624.041 802.974 627.739 799.789 632.267ZM34.5217 649.696C34.1462 651.788 33.1013 655.892 32.1994 658.815L30.5592 664.131L32.0106 665.05C32.8087 665.556 34.2301 665.976 35.17 665.985L36.878 666L38.8178 659.71C39.8856 656.25 40.9154 651.863 41.1062 649.96L41.4528 646.5L38.3274 646.196L35.2029 645.891L34.5217 649.696ZM778.636 661.339C775.601 665.375 773.118 669.092 773.118 669.598C773.118 670.885 777.008 673.184 778.07 672.526C778.552 672.228 781.529 668.548 784.687 664.349L790.426 656.713L788.573 655.357C787.555 654.61 786.142 654 785.437 654C784.731 654 781.67 657.303 778.636 661.339ZM20.7434 686.25C18.4061 690.788 16.3664 694.953 16.2116 695.506C16.0558 696.06 17.2574 698.085 18.8806 700.006L21.8312 703.5L24.0007 701.372L26.1712 699.244L25.0775 697.199L23.9847 695.154L26.9743 688.827C28.6185 685.347 29.9649 681.953 29.9649 681.285C29.9659 680.205 27.0013 678 25.548 678C25.2433 678 23.0818 681.712 20.7434 686.25ZM757.019 688.75C753.989 692.462 751.198 696.026 750.818 696.669C750.049 697.968 752.62 701.011 754.46 700.981C756.086 700.955 767.125 687.586 767.125 685.644C767.125 684.361 764.385 682 762.895 682C762.694 682 760.05 685.038 757.019 688.75ZM733.546 715.75C730.876 718.913 728.124 722.095 727.431 722.821C725.711 724.625 725.866 725.232 728.54 727.175L730.844 728.851L737.498 721.496C741.158 717.451 744.151 713.822 744.151 713.431C744.151 712.455 740.909 710.071 739.527 710.032C738.908 710.014 736.216 712.587 733.546 715.75ZM33.8885 712.86L31.4642 714.827L33.7117 717.873C34.9472 719.548 35.9591 722.239 35.9591 723.853C35.9591 726.674 37.3905 728 40.438 728C41.6746 728 44.0019 723.037 43.907 720.601C43.884 719.995 42.165 717.563 40.0884 715.197L36.3117 710.893L33.8885 712.86ZM712.707 740.25C709.85 743.747 708.92 744.915 705.427 749.404L703.167 752.309L704.836 754.154C705.753 755.169 707.046 756 707.709 756C709.062 756 720.178 741.891 720.178 740.173C720.178 739.209 717.158 737 715.838 737C715.576 737 714.167 738.462 712.707 740.25ZM31.0856 745.25C28.9211 752.061 26.9494 762.375 27.6925 763.005C28.6594 763.826 37.0558 766.254 37.4194 765.819C38.9137 764.031 40.0594 760.535 39.2403 760.262C38.69 760.078 37.5133 759.382 36.6263 758.714L35.0122 757.5L36.5944 750.627L38.1756 743.754L36.8181 742.892C34.1012 741.169 32.1245 741.983 31.0856 745.25ZM690.052 770.681C687.644 773.881 685.038 777.751 684.262 779.28L682.851 782.059L684.457 783.666C686.825 786.037 688.175 785.039 693.87 776.716L699.024 769.181L696.728 767.021L694.432 764.861L690.052 770.681ZM52.5871 768.838C51.6822 769.839 50.942 771.134 50.942 771.717C50.942 772.3 53.8687 774.614 57.4456 776.859L63.9501 780.942L66.3564 780.026L68.7627 779.11L68.2293 777.066C67.9356 775.942 66.1736 774.118 64.3127 773.011C62.4529 771.905 59.4233 770.104 57.5814 769.009L54.2312 767.018L52.5871 768.838ZM69.1712 794.706C66.3734 795.245 66.3864 796.934 69.2721 807.5L71.4576 815.5L73.9138 815.221C75.2652 815.068 76.6886 814.618 77.0762 814.221C77.4647 813.825 76.9533 810.35 75.9395 806.5C74.9256 802.65 73.8219 798.263 73.4873 796.75C73.1527 795.237 72.5503 794.061 72.1488 794.136C71.7473 794.211 70.4078 794.467 69.1712 794.706ZM670.171 804.397C668.009 809.016 666.24 813.282 666.24 813.878C666.24 814.918 670.937 816.633 671.696 815.87C671.899 815.667 673.911 811.677 676.168 807.004L680.271 798.508L678.559 797.254C675.365 794.916 674.108 795.985 670.171 804.397ZM77.0572 830.073C75.7637 830.59 74.9106 831.572 75.1614 832.256C80.1746 845.945 82.3821 851 83.347 851C83.9923 851 85.3397 850.401 86.3406 849.668L88.1595 848.337L84.6525 838.958C82.7227 833.8 80.754 829.479 80.2775 829.356C79.8001 829.234 78.3507 829.557 77.0572 830.073ZM660.852 830.583C660.519 831.454 659.952 835.988 659.594 840.658L658.941 849.15L662.341 848.825L665.741 848.5L666.424 839.518L667.106 830.536L665.924 829.783C663.946 828.524 661.493 828.91 660.852 830.583ZM93.0939 864.2C92.4347 864.86 91.8953 865.911 91.8953 866.536C91.8953 868.235 105.442 881 107.246 881C108.104 881 109.325 880.028 109.961 878.839L111.116 876.678L103.753 869.878C96.0525 862.765 95.0567 862.235 93.0939 864.2ZM661.246 866.877C661.246 868.46 661.969 872.96 662.853 876.877L664.459 884L666.599 883.985C667.774 883.976 669.25 883.639 669.875 883.235L671.013 882.5L668.925 873.25L666.836 864H664.042H661.246V866.877ZM274.187 884.918L268.194 885.5L267.86 887.865C267.313 891.734 268.746 892.19 279.052 891.433L288.671 890.726V887.363V884L284.426 884.168C282.091 884.261 277.484 884.598 274.187 884.918ZM122.676 887.504C122.05 888.882 121.786 890.258 122.091 890.563C123.476 891.95 136.716 895.96 139.973 895.979L143.603 896L144.13 893.982C144.799 891.423 142.423 889 139.245 889C137.897 889 134.236 888.1 131.111 887C123.987 884.494 124.049 884.49 122.676 887.504ZM302.24 888.517L301.609 891.034L303.636 893.211C304.75 894.409 306.2 896.877 306.857 898.695L308.051 902H310.846H313.642V899.968C313.642 897.049 310.903 890.904 308.426 888.264C305.609 885.262 303.03 885.368 302.24 888.517ZM233.484 887.689C232.321 887.993 231.736 889.127 231.736 891.073V894L239.976 893.986C244.509 893.979 249.228 893.701 250.464 893.37L252.712 892.767V889.883V887L243.972 887.116C239.165 887.18 234.445 887.438 233.484 887.689ZM199.023 889.723L195.777 890.127V893.098V896.07L206.015 895.785L216.253 895.5L216.566 892.25L216.88 889L209.574 889.16C205.557 889.248 200.809 889.502 199.023 889.723ZM159.584 893.143C159.352 894.721 159.385 896.234 159.657 896.506C159.929 896.778 164.824 897 170.536 897H180.921L180.607 893.933L180.294 890.865L170.149 890.57L160.005 890.274L159.584 893.143ZM672.982 897.689C672.021 897.941 671.234 898.832 671.234 899.671C671.234 902.057 679.314 917.004 680.585 916.968C681.211 916.951 682.529 916.324 683.516 915.575L685.309 914.213L681.046 905.606C678.701 900.873 676.321 897.052 675.756 897.116C675.192 897.18 673.943 897.438 672.982 897.689ZM311.012 916.765C310.348 917.197 309.73 921.417 309.514 927L309.147 936.5H312.144H315.141L315.425 926.25L315.71 916L313.927 916.015C312.946 916.024 311.635 916.361 311.012 916.765ZM690.962 928.08C688.145 929.723 688.878 931.863 694.751 939.139C700.347 946.074 701.822 946.977 703.997 944.8C705.647 943.148 705.5 941.715 703.448 939.439C702.487 938.372 699.922 935.138 697.749 932.25C693.459 926.55 693.521 926.588 690.962 928.08ZM306.199 952.144C305.94 952.89 304.786 957.277 303.635 961.892C301.406 970.823 301.746 972.409 305.762 971.835L308.101 971.5L310.343 962.054C311.577 956.859 312.486 952.508 312.363 952.386C312.24 952.263 310.909 951.853 309.404 951.475C307.508 950.999 306.524 951.204 306.199 952.144ZM713.269 956.141L711.183 958.384L713.933 961.285C715.445 962.881 718.825 965.993 721.445 968.201L726.207 972.216L727.688 970.985C728.502 970.309 729.168 968.986 729.168 968.047C729.168 966.581 722.349 959.369 717.018 955.199L715.357 953.898L713.269 956.141ZM295.665 994.992C294.444 999.938 293.705 1004.66 294.024 1005.49C294.6 1007 299.632 1007.67 299.687 1006.25C299.703 1005.84 300.589 1002.35 301.656 998.5C304.031 989.926 304.12 987.393 302.074 986.607C298.514 985.239 297.861 986.093 295.665 994.992ZM287.666 1022.01C286.291 1024.58 281.679 1037.52 281.679 1038.8C281.679 1040.56 285.768 1041.34 287.155 1039.85C289.023 1037.84 293.94 1024.16 293.347 1022.61C292.481 1020.36 288.762 1019.96 287.666 1022.01ZM274.181 1054.01C273.839 1054.57 274.42 1056.12 275.474 1057.46L277.389 1059.9L278.535 1058.75C280.181 1057.1 279.947 1054.32 278.101 1053.61C275.868 1052.75 274.897 1052.85 274.181 1054.01Z" fill="#FFDC00"/>
</svg>
