<svg width="877" height="1060" viewBox="0 0 877 1060" fill="none" xmlns="http://www.w3.org/2000/svg">
<path fill-rule="evenodd" clip-rule="evenodd" d="M385.263 3.535V7.07001L395.513 6.785L405.763 6.5L406.076 3.25L406.39 0H395.826H385.263V3.535ZM421.647 1.442C421.343 2.234 421.25 3.697 421.44 4.692L421.786 6.5L432.025 6.785L442.263 7.07001V4.17999V1.289L435.513 0.651993C425.184 -0.324007 422.261 -0.156999 421.647 1.442ZM357.406 2.043C353.36 2.467 349.682 3.193 349.233 3.657C348.784 4.121 348.662 5.75001 348.962 7.27901L349.507 10.057L351.135 9.608C352.03 9.361 356.363 8.851 360.763 8.476C365.163 8.101 369.025 7.63499 369.346 7.44099C369.667 7.24699 369.728 5.71801 369.483 4.04401L369.036 1L366.9 1.136C365.724 1.21 361.452 1.619 357.406 2.043ZM458.42 2.78101C457.784 2.99301 457.263 4.452 457.263 6.022V8.877L462.013 9.48599C464.625 9.82099 469.16 10.462 472.09 10.909L477.418 11.723L478.34 9.29601C479.746 5.59801 479.522 5.137 476.013 4.509C469.844 3.405 459.574 2.39601 458.42 2.78101ZM325.763 5.687C324.113 5.899 320.4 6.539 317.513 7.108L312.263 8.142L312.278 9.821C312.287 10.744 312.691 12.127 313.176 12.894L314.059 14.288L323.411 13.09C328.555 12.432 333.066 11.579 333.436 11.196C333.806 10.813 333.866 9.262 333.569 7.75L333.03 5L330.896 5.14999C329.723 5.23199 327.413 5.474 325.763 5.687ZM493.846 10.524C493.472 12.016 493.39 13.46 493.664 13.735C494.381 14.451 509.358 17.925 511.905 17.966C513.395 17.99 514.246 17.204 514.703 15.382C515.065 13.942 515.207 12.611 515.02 12.424C514.432 11.836 503.584 9.171 498.954 8.476L494.527 7.812L493.846 10.524ZM286.272 13.161C281.603 14.217 277.423 15.44 276.985 15.878C276.547 16.316 276.663 17.923 277.244 19.449L278.299 22.224L280.531 21.623C281.759 21.293 286.251 20.266 290.513 19.341C298.338 17.643 298.722 17.315 297.633 13.25C296.936 10.651 297.354 10.654 286.272 13.161ZM529.252 19.021C528.657 20.132 528.423 21.451 528.733 21.951C529.358 22.962 544.306 28 546.682 28C548.128 28 550.263 25.145 550.263 23.213C550.263 22.246 534.834 17 531.989 17C531.078 17 529.847 17.909 529.252 19.021ZM250.465 23.102L241.168 26.124L241.828 28.312C242.191 29.515 242.83 30.87 243.248 31.322C243.975 32.109 260.92 27.454 262.55 26.019C263.46 25.218 261.697 19.98 260.538 20.04C260.112 20.062 255.579 21.44 250.465 23.102ZM564.288 29.952C562.564 33.175 563.121 34.618 566.513 35.717C568.301 36.296 572.334 37.933 575.476 39.356L581.19 41.942L582.726 39.749C583.572 38.542 584.263 37.217 584.263 36.803C584.263 35.8 579.395 33.337 571.652 30.422L565.314 28.036L564.288 29.952ZM217.015 35.387C212.754 37.152 208.774 39.089 208.172 39.691L207.078 40.785L208.206 42.893C209.677 45.642 210.418 45.574 219.282 41.891C228.331 38.131 228.687 37.827 227.871 34.573C227.071 31.387 226.584 31.424 217.015 35.387ZM597.233 45.055C596.628 46.186 596.275 47.5 596.448 47.976C596.621 48.452 600.665 50.877 605.434 53.366L614.104 57.891L615.725 55.417C616.617 54.057 617.068 52.494 616.729 51.945C616.027 50.809 600.829 43 599.32 43C598.778 43 597.838 43.925 597.233 45.055ZM183.513 51.66C175.168 56.373 173.668 58.431 176.728 60.971L178.193 62.187L184.649 58.907C188.2 57.103 192.132 54.853 193.387 53.906L195.669 52.185L194.487 49.593C193.837 48.167 192.959 47 192.534 47C192.11 47 188.051 49.097 183.513 51.66ZM629.884 61.866C628.993 62.851 628.263 64.148 628.263 64.748C628.263 65.348 632.179 68.087 636.965 70.835L645.666 75.831L646.933 74.165C649.549 70.725 648.321 69.349 637.134 63.179L631.505 60.075L629.884 61.866ZM152.049 71.78C147.806 74.926 144.328 77.725 144.321 78C144.314 78.275 145.137 79.579 146.151 80.897L147.994 83.295L156.128 77.102C160.602 73.697 164.263 70.512 164.263 70.026C164.263 68.973 161.408 65.987 160.442 66.03C160.068 66.047 156.292 68.634 152.049 71.78ZM659.918 81.829C659.008 82.835 658.263 83.902 658.263 84.201C658.263 84.888 672.046 95.98 673.678 96.606C674.344 96.861 675.757 96.112 676.817 94.941L678.744 92.811L675.754 90.303C669.613 85.154 668.69 84.42 665.609 82.236C661.809 79.543 661.976 79.555 659.918 81.829ZM123.763 96L116.818 102.999L119.014 105.196L121.211 107.393L128.116 100.946C135.103 94.424 136.237 92.374 134.063 90.2C132.024 88.161 130.932 88.776 123.763 96ZM688.252 105.021C686.867 107.609 686.907 107.663 695.3 114.531L702.383 120.325L704.565 118.142L706.748 115.959L703.756 113.219C696.937 106.976 691.826 103 690.618 103C689.912 103 688.847 103.909 688.252 105.021ZM99.2287 122.62L92.9247 130.241L93.9457 131.87C96.0177 135.177 98.6327 134.097 103.763 127.813C110.622 119.412 110.73 119.174 108.698 116.928C107.738 115.868 106.633 115 106.243 115C105.852 115 102.696 118.429 99.2287 122.62ZM715.714 129.054L713.855 131.109L721.039 138.054C724.99 141.874 728.612 145 729.088 145C729.564 145 730.798 144.066 731.831 142.924L733.71 140.849L726.605 133.924C722.697 130.116 719.066 127 718.536 127C718.007 127 716.736 127.924 715.714 129.054ZM77.9327 149.554C75.4817 152.677 72.8787 156.35 72.1467 157.716L70.8167 160.201L72.7307 161.601C75.4377 163.58 77.0097 163.343 78.3907 160.75C79.0497 159.512 81.4007 156.097 83.6137 153.16L87.6387 147.82L86.5937 146.16C84.5797 142.962 82.4527 143.796 77.9327 149.554ZM741.31 154.761L739.054 156.587L744.748 164.544C747.88 168.92 750.973 172.626 751.622 172.779C752.271 172.932 753.637 172.447 754.659 171.7L756.516 170.342L755.24 167.921C754.538 166.589 753.67 165.275 753.311 165C752.951 164.725 751.697 162.917 750.523 160.983C749.348 159.049 747.303 156.446 745.976 155.2L743.565 152.935L741.31 154.761ZM58.5837 178.75C57.0637 181.363 54.7947 185.025 53.5407 186.89C50.6697 191.161 50.6877 191.417 53.9577 192.907L56.6527 194.135L58.4357 191.817C59.4157 190.543 60.2287 189.156 60.2407 188.735C60.2527 188.314 61.9337 185.453 63.9757 182.377L67.6887 176.785L65.7847 175.392C62.7217 173.153 61.5117 173.717 58.5837 178.75ZM762.013 185.082C759.459 186.567 759.775 187.876 764.836 196.81L769.409 204.881L771.586 204.078C772.783 203.636 773.869 202.65 773.998 201.887C774.284 200.193 766.161 184.776 764.763 184.361C764.213 184.198 762.975 184.522 762.013 185.082ZM39.2167 214.359C37.0417 218.956 35.2627 223.159 35.2627 223.698C35.2627 224.238 36.3977 225.196 37.7847 225.828L40.3077 226.978L44.7867 217.843L49.2657 208.708L48.1417 207.354C47.5237 206.609 46.1517 206 45.0937 206H43.1697L39.2167 214.359ZM778.617 217.681L776.47 219.106L780.557 228.053C784.714 237.154 786.129 238.376 789.472 235.75L791.063 234.5L786.93 225.768C784.657 220.965 782.34 216.86 781.78 216.645C781.221 216.431 779.797 216.897 778.617 217.681ZM26.8207 243.75C25.8787 246.363 24.7297 249.4 24.2677 250.5C23.8057 251.6 22.9757 253.928 22.4237 255.673L21.4207 258.846L22.9237 259.423C23.7497 259.74 25.1947 260 26.1347 260H27.8427L31.0527 251.129C32.8177 246.251 34.2627 241.803 34.2627 241.246C34.2627 240.388 31.2187 239.06 29.1487 239.014C28.8107 239.006 27.7637 241.137 26.8207 243.75ZM793.013 250.679C792.051 250.936 791.261 251.451 791.258 251.823C791.246 253.301 797.637 268.585 798.794 269.848L800.03 271.195L802.234 270.015L804.439 268.836L803.774 266.168C802.482 260.975 797.386 250.498 796.084 250.356C795.357 250.276 793.975 250.422 793.013 250.679ZM14.2877 283.611L12.0037 293.222L13.3837 294.117C14.1417 294.609 15.5987 294.896 16.6197 294.756L18.4777 294.5L20.8597 285.053L23.2417 275.605L22.0027 274.818C21.3207 274.385 19.8197 274.024 18.6667 274.015L16.5717 274L14.2877 283.611ZM805.898 284.712L804.032 285.191L804.595 288.346C805.75 294.81 808.144 305.215 808.578 305.648C809.574 306.645 814.263 304.679 814.263 303.265C814.263 299.385 809.981 284.011 808.93 284.116C808.288 284.18 806.924 284.448 805.898 284.712ZM8.91268 309.757C7.92468 311.356 5.19169 329.076 5.78469 330.036C6.11269 330.566 7.67169 331 9.24969 331H12.1187L12.7907 325.25C13.1597 322.087 13.8447 317.7 14.3127 315.5C14.7797 313.3 14.8477 311.213 14.4627 310.862C13.1407 309.658 9.43068 308.919 8.91268 309.757ZM812.091 321.037L810.418 322.013L810.902 329.756C811.169 334.015 811.592 338.512 811.844 339.75L812.301 342H815.432H818.564L817.895 331.798C817.155 320.511 816.158 318.663 812.091 321.037ZM2.83069 351.25C2.51469 354.137 2.14469 358.75 2.00869 361.5L1.76269 366.5L4.86169 366.802L7.96069 367.104L8.61169 359.401C8.96969 355.165 9.26269 350.416 9.26269 348.849V346H6.33469H3.40669L2.83069 351.25ZM812.93 357.667C812.101 358.495 812.073 372.688 812.893 375.75L813.496 378H816.38H819.263V367.5V357H816.43C814.871 357 813.296 357.3 812.93 357.667ZM0.0876858 388.25C-0.289314 401.718 0.443689 404.288 4.37369 403.261L6.26269 402.767V392.383V382H3.26269H0.262689L0.0876858 388.25ZM813.496 393.835C812.64 394.378 812.153 397.864 811.996 404.57L811.763 414.5L814.443 414.81L817.123 415.119L817.652 410.81C817.942 408.439 818.44 403.742 818.758 400.371L819.335 394.242L817.717 393.621C815.64 392.824 815.041 392.854 813.496 393.835ZM1.95169 418.701L0.139688 419.17L0.756692 427.335C1.09569 431.826 1.58869 436.541 1.85269 437.813L2.33269 440.126L5.04769 439.813L7.76269 439.5L7.42269 429.503C7.11769 420.542 6.33169 417.715 4.26269 418.131C3.98769 418.187 2.94769 418.443 1.95169 418.701ZM806.721 439.584L804.917 449.168L806.34 450.069C807.123 450.564 808.476 450.976 809.348 450.985L810.932 451L813.103 441.25C814.297 435.888 815.272 431.163 815.269 430.75C815.266 430.337 813.747 430 811.894 430H808.525L806.721 439.584ZM6.41169 454.726L4.06069 455.166L4.71069 459.833C5.06869 462.4 5.84769 467.087 6.44169 470.25L7.52268 476L9.14269 475.985C10.0337 475.976 11.3987 475.567 12.1757 475.075L13.5897 474.18L12.1747 464.423C11.3967 459.056 10.3107 454.58 9.76168 454.476C9.21168 454.372 7.70469 454.485 6.41169 454.726ZM803.278 474.25C803.296 485.014 803.846 486.394 807.725 485.42L810.497 484.724L809.88 480.223C809.541 477.747 809.263 473.309 809.263 470.36V465H806.263H803.263L803.278 474.25ZM13.0127 490.689C12.0147 490.95 11.2697 492.082 11.2777 493.323C11.2937 495.54 14.9867 511.057 15.6577 511.729C16.6257 512.696 21.2627 510.596 21.2627 509.19C21.2627 505.536 16.8607 490.009 15.8547 490.116C15.2547 490.18 13.9757 490.438 13.0127 490.689ZM809.013 499.679C806.902 500.243 806.877 500.656 808.652 505.686C811.317 513.238 814.322 519 815.597 519C816.303 519 817.695 518.405 818.689 517.678L820.498 516.355L818.752 512.979C817.792 511.122 816.234 507.329 815.29 504.551C813.606 499.593 812.512 498.744 809.013 499.679ZM22.4167 525.718L20.0707 526.164L20.7007 529.519C21.5057 533.813 25.2247 545.279 26.1157 546.217C27.2887 547.452 31.2617 545.847 31.2757 544.133C31.2937 541.773 26.0587 524.974 25.3547 525.136C25.0297 525.211 23.7067 525.473 22.4167 525.718ZM826.462 530.013C824.962 531.421 824.475 532.578 825.062 533.336C834.082 544.997 836.568 548 837.199 548C837.614 548 838.74 547.13 839.702 546.067L841.451 544.134L838.457 539.817C836.811 537.443 833.956 533.78 832.113 531.677L828.763 527.854L826.462 530.013ZM849.013 558.08C848.051 558.641 847.263 559.649 847.263 560.321C847.263 561.365 855.819 573.872 858.216 576.332C859.283 577.426 863.263 574.91 863.263 573.142C863.263 571.605 852.548 556.983 851.457 557.03C851.075 557.047 849.975 557.519 849.013 558.08ZM32.3167 560.925L30.8697 561.861L34.6577 571.43C36.7407 576.694 38.9927 581 39.6627 581C40.3327 581 41.7217 580.385 42.7497 579.633L44.6197 578.266L41.0857 569.383L37.5507 560.5L35.6567 560.244C34.6147 560.104 33.1117 560.41 32.3167 560.925ZM869.584 588.627L867.405 590.15L868.894 594.325C870.635 599.206 870.103 603.116 867.197 606.811L865.113 609.46L867.299 611.23C870.381 613.726 870.866 613.533 873.71 608.681C877.541 602.144 877.855 598.886 875.269 592.515C874.038 589.482 872.745 587.024 872.397 587.052C872.048 587.081 870.782 587.79 869.584 588.627ZM48.0127 594.082C47.0497 594.642 46.2627 595.658 46.2627 596.341C46.2627 597.916 56.1257 614.011 57.0637 613.968C58.2427 613.915 61.2637 611.333 61.2507 610.39C61.2327 608.985 51.7457 593.657 50.7017 593.345C50.1857 593.191 48.9757 593.522 48.0127 594.082ZM845.812 626.618L838.055 633.237L840.124 635.306L842.194 637.375L844.478 636.13C845.735 635.445 849.228 632.71 852.24 630.051L857.717 625.217L856.321 622.608C855.553 621.174 854.62 620 854.247 620C853.873 620 850.078 622.978 845.812 626.618ZM66.9337 625.45L65.1047 626.836L66.3067 629.083C67.9377 632.129 76.2787 643.444 77.1017 643.726C77.4657 643.851 78.7887 643.164 80.0417 642.2L82.3217 640.447L76.5417 632.241C73.3637 627.727 70.3127 624.041 69.7627 624.049C69.2127 624.057 67.9397 624.687 66.9337 625.45ZM836.026 647.21C835.593 648.509 837.267 656.451 839.22 662.37C840.496 666.237 843.044 667.174 845.204 664.571L846.39 663.142L844.326 656.213C843.192 652.402 842.263 648.545 842.263 647.642C842.263 645.681 836.665 645.293 836.026 647.21ZM87.2977 655.458L86.0877 656.916L91.7577 664.45C94.8757 668.594 97.8857 672.267 98.4457 672.613C99.0057 672.959 100.379 672.329 101.496 671.211L103.527 669.18L101.2 665.84C93.4057 654.653 90.0477 652.145 87.2977 655.458ZM849.013 679.08C846.664 680.448 846.771 681.266 850.279 688.689L853.295 695.072L852.199 697.119L851.104 699.166L852.838 701.083C855.188 703.68 855.751 703.538 858.765 699.586L861.369 696.172L856.806 687.086C854.296 682.089 851.91 678.014 851.503 678.03C851.096 678.047 849.975 678.519 849.013 679.08ZM111.013 683.082C110.05 683.642 109.263 684.695 109.263 685.423C109.263 686.459 117.244 697.073 121.174 701.263C121.567 701.683 122.902 700.948 124.14 699.631L126.391 697.235L120.236 689.868C116.85 685.815 113.784 682.402 113.422 682.282C113.059 682.162 111.976 682.522 111.013 683.082ZM134.513 710.937C132.238 712.842 131.633 714.556 133.021 715.167C133.437 715.35 136.422 718.514 139.652 722.198L145.526 728.895L147.863 727.198C149.148 726.264 150.214 725.235 150.232 724.911C150.266 724.273 145.843 718.926 140.263 712.858L136.763 709.052L134.513 710.937ZM836.8 715.65L833.004 720.191L834.173 724.096C834.817 726.243 835.963 728 836.721 728C839.83 728 841.263 726.692 841.263 723.853C841.263 722.239 842.216 719.63 843.381 718.055C845.592 715.063 845.356 713.655 842.374 712.059L840.596 711.108L836.8 715.65ZM158.013 738.08C155.463 739.565 155.762 740.497 160.982 747.326C168.466 757.118 168.767 757.31 171.653 754.122L173.352 752.244L167.296 744.622C163.964 740.43 160.907 737.014 160.501 737.03C160.095 737.047 158.975 737.519 158.013 738.08ZM839.637 743.468C839.299 744.349 839.575 747.191 840.25 749.785C840.925 752.378 841.683 755.284 841.935 756.242C842.236 757.389 841.548 758.369 839.921 759.11L837.449 760.236L838.483 763.202L839.517 766.167L841.64 765.559C842.808 765.225 845.039 764.674 846.599 764.334C848.159 763.994 849.63 763.207 849.869 762.585C850.108 761.963 849.231 757.189 847.92 751.977L845.537 742.5L842.894 742.183C841.178 741.977 840.036 742.428 839.637 743.468ZM179.492 767.171C177.664 768.999 177.829 769.447 183.334 777.605C188.477 785.227 190.41 786.308 192.621 782.797L193.693 781.095L188.728 773.807C183.68 766.398 181.693 764.97 179.492 767.171ZM819.738 769.111C811.097 773.676 809.263 775.139 809.263 777.465C809.263 781.462 812.777 781.271 819.53 776.906C822.89 774.734 825.814 772.782 826.029 772.567C826.244 772.352 825.811 771.015 825.066 769.594L823.713 767.011L819.738 769.111ZM801.983 804.08L799.461 814.138L801.612 814.938C802.795 815.377 804.272 815.544 804.894 815.307C806.021 814.879 811.016 796.368 810.195 795.656C809.958 795.45 808.58 794.998 807.134 794.652L804.505 794.023L801.983 804.08ZM198.033 797.377L196.304 798.691L200.368 807.095C202.603 811.718 204.566 815.634 204.729 815.799C205.418 816.49 210.263 814.696 210.263 813.75C210.263 811.415 202.257 796.002 201.059 796.032C200.346 796.049 198.985 796.655 198.033 797.377ZM210.462 829.679L209.162 830.2L209.769 837.35C210.103 841.283 210.584 845.513 210.839 846.75L211.301 849H214.426H217.55L216.857 839.825C216.476 834.779 215.935 830.279 215.655 829.825C215.099 828.926 212.523 828.853 210.462 829.679ZM795.543 830.821C795.211 831.744 793.662 835.865 792.101 839.977C790.54 844.09 789.263 847.975 789.263 848.611C789.263 849.588 792.186 850.939 794.404 850.986C795.389 851.007 800.646 837.26 801.439 832.592L801.763 830.684L798.954 829.913L796.146 829.142L795.543 830.821ZM773.33 869.919L765.896 876.791L767.626 879.431L769.355 882.07L772.059 880.113C773.546 879.036 777.231 875.637 780.247 872.56L785.73 866.964L784.639 865.232C782.709 862.167 780.907 862.914 773.33 869.919ZM207.586 873.202L205.485 882.5L206.624 883.235C207.25 883.639 208.689 883.976 209.82 883.985L211.877 884L213.559 877.25C214.484 873.538 215.359 869.15 215.502 867.5L215.763 864.5L212.725 864.202L209.687 863.905L207.586 873.202ZM588.44 887.126L588.763 890.5L597.567 891.336C602.409 891.796 607.021 891.923 607.817 891.618C609.309 891.045 609.844 886.47 608.513 885.664C608.1 885.414 603.343 884.882 597.94 884.481L588.118 883.751L588.44 887.126ZM744.763 887.06C741.463 888.092 737.526 889.184 736.013 889.487L733.263 890.038V893.019V896L736.513 895.994C742.431 895.984 755.263 891.733 755.263 889.782C755.263 887.988 753.171 885.002 751.978 885.092C751.31 885.143 748.063 886.028 744.763 887.06ZM568.485 888.264C566.005 890.904 563.263 897.049 563.263 899.968V902H566.062H568.861L570.056 898.695C570.714 896.877 572.165 894.409 573.281 893.211L575.31 891.034L574.678 888.517C573.887 885.368 571.305 885.262 568.485 888.264ZM624.263 889.822V892.767L626.513 893.37C627.75 893.701 632.475 893.979 637.013 893.986L645.263 894V891.117C645.263 887.614 644.496 887.363 632.969 887.086L624.263 886.876V889.822ZM660.45 892.25L660.763 895.5L671.013 895.785L681.263 896.07V893.166V890.262L677.513 889.642C675.451 889.301 670.697 889.017 666.95 889.011L660.136 889L660.45 892.25ZM697.281 890.833C696.721 891.017 696.263 892.479 696.263 894.083V897H706.704C712.447 897 717.355 896.66 717.612 896.244C717.869 895.829 717.865 894.366 717.603 892.994L717.127 890.5H707.713C702.535 890.5 697.841 890.65 697.281 890.833ZM195.44 905.606L191.172 914.213L192.967 915.575C193.955 916.324 195.298 916.951 195.951 916.968C197.165 917.001 205.263 901.803 205.263 899.491C205.263 898.211 203.144 897 200.904 897C200.247 897 197.788 900.873 195.44 905.606ZM561.478 926.25L561.763 936.5H564.763H567.763L567.406 927C567.046 917.436 566.486 916.045 562.978 916.015L561.193 916L561.478 926.25ZM176.822 934.636L170.945 942.272L171.963 943.886C172.523 944.774 173.811 945.5 174.825 945.5C176.971 945.5 187.214 933.363 187.243 930.785C187.259 929.401 184.597 927 183.047 927C182.856 927 180.055 930.436 176.822 934.636ZM566.097 952.221L564.47 953.5L566.632 962.5L568.795 971.5L571.534 971.817C573.137 972.002 574.475 971.587 574.758 970.817C575.023 970.093 574.222 965.454 572.976 960.509C570.647 951.262 569.332 949.678 566.097 952.221ZM153.676 960.159C147.173 966.404 146.086 968.778 148.728 970.971L150.193 972.186L152.978 970.173C154.51 969.065 157.906 965.964 160.526 963.282L165.289 958.405L163.237 956.202C162.108 954.991 160.939 954 160.637 954C160.336 954 157.204 956.771 153.676 960.159ZM574.513 986.662C572.798 987.354 572.983 990.282 575.263 998.5C576.331 1002.35 577.218 1005.84 577.234 1006.25C577.277 1007.37 581.707 1007.16 582.884 1005.98C583.579 1005.28 583.114 1001.93 581.43 995.479L578.954 986L577.359 986.079C576.481 986.122 575.201 986.385 574.513 986.662ZM585.013 1021.08C582.635 1022.46 582.772 1023.62 586.419 1032.94C589.584 1041.02 590.853 1042.18 594.22 1040.05L595.677 1039.13L593.317 1032.31C590.538 1024.29 588.494 1019.99 587.487 1020.03C587.089 1020.05 585.975 1020.52 585.013 1021.08ZM598.513 1053.66C596.968 1054.29 596.882 1057.22 598.365 1058.7L599.468 1059.81L601.365 1058.18C605.07 1055.01 603.061 1051.83 598.513 1053.66Z" fill="#FFDC00"/>
</svg>
